<svg version="1" xmlns="http://www.w3.org/2000/svg" width="2666.667" height="2666.667" viewBox="0 0 2000.000000 2000.000000"><path d="M953 1.1C858.8 5.5 758.1 25 670 56 395.4 152.5 177.6 361.6 70.5 631.5-7.1 827-21 1042.6 30.9 1246.3c79.3 311.3 302.1 564.7 600.6 683.2 195.5 77.6 411.1 91.5 614.8 39.6 311.3-79.3 564.7-302.1 683.2-600.6 77.6-195.5 91.5-411.1 39.6-614.8C1889.8 442.4 1667 189 1368.5 70.5 1237.1 18.4 1094-5.5 953 1.1zm225.5 451.4c7.6 3.6 14.9 10.9 18.3 18.3 2.4 5.1 2.7 6.9 2.7 16.2 0 9.4-.3 11.1-2.8 16.2-3.7 7.5-12.8 15.9-20.4 18.9-7.9 3.1-19.5 3.1-27.5 0-7.2-2.8-16-10.7-19.4-17.3l-2.4-4.8H993.3l-15.9 17.2c-8.8 9.5-16.5 18.1-17.3 19-1.3 1.7 5.2 1.8 134.1 1.8h135.5l1.8-4c2.6-5.7 10.4-13.3 17.2-16.7 5.3-2.5 6.8-2.8 16.3-2.8 9.4 0 11.1.3 16 2.7 18.9 9.3 26.9 31.6 18.2 50.3-11.1 23.7-42.4 29.2-61 10.6-2.6-2.6-5.6-6.6-6.6-8.9l-1.9-4.2H933.5L920 579.7c-7.4 8.1-14.3 15.7-15.3 17l-1.8 2.3h214c178.1 0 214.1-.2 214.1-1.3 0-2.8 8-12.5 13.2-16 15.6-10.5 36.9-8.3 49.1 5.3 20.4 22.7 8.7 57.1-21.5 63.1-14.5 2.9-31.3-5.2-39-18.8l-3-5.3H1000v135.5l5.3-5.5c2.9-3 9.5-10.2 14.8-15.9l9.7-10.5 9.6 8.9c5.3 4.9 9.6 9.2 9.6 9.6 0 .7-177.9 195-187.1 204.4l-4.9 5V608.1l62-67.5 62.1-67.6h145.8l1.7-3.3c4.4-8.6 12.1-15.2 21.7-18.8 7.9-2.9 20.3-2.2 28.2 1.6zM1648 553.4v81.5l-90.3 87.8c-49.7 48.3-91.3 88.7-92.5 89.7l-2.2 1.9V605h33v-57.6l-6.4-4.2c-18.7-12.3-23.1-36.9-9.8-54.6 7.9-10.5 18.2-15.1 32.1-14.4 11.3.5 17.8 3.5 25.4 11.8 7.3 7.9 10 14.8 10 25.5 0 5.9-.5 9.5-2.2 13.8-2.7 6.9-11.1 16.4-17 19.3l-4.1 1.9V605h35V472h89v81.4zM676.3 530l53.7 56.9 3-1.1c1.7-.5 6.7-.8 11.3-.6 14.4.6 25.7 7.9 31.9 20.6 4.4 8.8 5.1 20.8 1.8 29.5-10.8 28.6-47.6 33.7-66.2 9.3-7-9.4-9.1-23.6-4.9-34.5l2-5.4-3.2-3.7c-1.8-2-23.9-25.6-49.1-52.3l-46-48.7h-21.8c-12 0-21.8.2-21.8.5s41.7 44.7 92.7 98.8c72.1 76.3 93.2 98.1 94.8 97.9 1.1-.2 6.3-.4 11.5-.5 8.3-.1 10.2.2 15 2.4 19.6 9.2 27.8 32.2 18.4 51.6-3.3 6.9-12.7 15.5-20.1 18.4-7.9 3.1-19.5 3.1-27.5 0-6.2-2.4-14.7-9.4-18.2-15-5.8-9.2-7.2-22.7-3.7-33.1l1.9-5.4-5.6-6.1c-3-3.3-48.7-51.8-101.5-107.8l-96-101.7h-43.8l1.8 2.3c1 1.2 68.8 73.3 150.7 160 104.1 110.4 149.3 157.6 150.4 157.2 8.8-3.4 20.2-3 28.8.9 7.7 3.5 15.5 11.3 19 18.9 2.6 5.4 2.9 7.3 2.9 15.7 0 8.4-.3 10.2-2.9 15.8-3.7 8-12.2 16.1-20.3 19.3-4.4 1.8-7.8 2.3-14.3 2.3-7.5.1-9.3-.3-15.2-3.1-18-8.5-26.6-28.3-20.2-46.4l1.2-3.7-112.5-119.3c-61.8-65.7-115.1-122-118.2-125.2l-5.8-5.9-33.1 35-33.2 35.1v179l157 166.3 156.9 166.3v245l-62.2 65.7-62.2 65.7-79.3.1H495l-112-67.7-112-67.8v-195.3l-5.3-3c-13.6-7.6-21.4-23.8-18.8-38.6 2.9-16.6 14.9-28.6 31.6-31.7 15.5-2.8 32.4 6 39.6 20.7 8.1 16.4 3 36.8-11.9 47.5-3.1 2.1-6.1 3.9-6.9 3.9-1.1 0-1.3 15.5-1.3 89.5v89.5h38v-59c0-48.6-.2-59-1.3-59-2.8 0-12.5-8-16-13.2-16.8-24.9.5-58.7 30.3-59.1 16.2-.2 30.2 9.3 36.3 24.5 2.9 7.5 2.8 19.2-.2 27.1-2.7 7-11.2 16.6-17 19.2l-4.1 1.8V1394h41v-58l-3.7-1.9c-14.2-7.2-22.8-24.1-20.3-39.5 1.4-8.7 5.2-15.6 12-21.9 19-17.7 48.7-11.7 59.8 12.1 2.4 5 2.7 6.9 2.7 15.7 0 9-.3 10.6-2.8 15.8-3.4 6.8-10.9 14.7-16.6 17.3l-4 1.9-.1 29.2v29.3h208v-43.9l-183.7-195C308.5 998.3 272.1 960.2 270.5 960.6c-12.5 3-20 2.4-30.2-2.6-19.8-9.7-26.3-36-13.6-54.8 10.3-15.2 30.9-20.6 47.5-12.4 8.3 4.1 15.8 12 18.9 20 2.8 7.1 3.1 19.5.5 26.1l-1.6 4.5 3.8 4c2.2 2.3 79 83.7 170.7 181.1 91.7 97.3 168.3 178.6 170.1 180.5l3.4 3.5v-45.3l-195.6-207.3-195.6-207.4h-11.1c-10.2 0-11.7-.3-17.5-2.9-8-3.7-16.1-12.2-19.3-20.3-2.8-7.2-3.1-19.5-.5-26.3 4-10.7 13-19.8 23.6-23.6 6.7-2.4 18.2-2.1 25.3.6 19.8 7.5 30.1 30.8 21.8 49.5l-2.2 4.9 5 5c2.7 2.8 92.2 97.7 199 211L667 1254.2V1394h28v-158.5L455.9 982C324.4 842.6 216.3 727.9 215.6 727.2c-1.1-1.1-2.2-1.1-6.6.2-28.1 8.3-54.6-17.9-47-46.4 2.7-10.4 12.4-21.1 22.8-25.1 7.9-3.1 19.5-3.1 27.4 0 6.2 2.4 14.7 9.4 18.2 15 5.4 8.6 7.1 21.6 4.3 31.2l-1.4 4.4 25.1 26.6 25.1 26.5.5-58.7.5-58.7 79.9-84.6 80-84.6h178.1l53.8 57zm415.8 274.4c-1 1.2-13.6 14.9-28 30.6l-26.1 28.5V931h230.8l3-5.3c10.6-18.8 35.7-24.4 54-12 19.6 13.3 21.8 42.8 4.2 58.7-6.3 5.5-12 8.3-20 9.7-15 2.7-31.8-5.8-39.1-19.7l-2.4-4.4H1038v36h152.5l2.4-4.5c6.7-12.7 24.1-21 38.3-18.5 8.5 1.6 14.2 4.3 19.9 9.7 6.6 6.2 9.6 11.5 11.5 20.3 3.5 16.9-4.7 33.5-20.4 41.2-6.2 3.1-7.4 3.3-16.7 3.3-8.8 0-10.7-.3-15.7-2.7-6.8-3.1-14.3-10.4-17.8-17.1l-2.5-4.7H1038v37h78.9l1.7-3.2c3.1-5.9 11.1-13.4 17.7-16.4 23.9-10.9 51.2 5.1 53.4 31.3 1.6 19.8-11.7 36.6-32.2 40.4-14.5 2.7-33-6.8-38.9-19.9l-1.9-4.2H1038v284.5l29.5 29.5 29.5 29.5 115.5-115.5c103.2-103.2 115.5-115.8 115-118-2.7-12.4-2.9-14.2-1.6-20.2 3.4-16.4 14.6-27.6 30.8-30.8 16-3.2 33.1 5.6 40.5 20.8 3 6.1 3.3 7.6 3.3 16.2 0 8.3-.3 10.2-2.8 15.5-3.7 8-11.4 15.6-19.1 19.1-7.7 3.5-18.7 4.3-26.1 2l-5-1.6-151 151-151 151h57l100.3-100.3 100.4-100.4-1.2-4.4c-5.4-19.8 6.2-40.5 25.9-46.3 19.6-5.7 40.9 5.7 46.7 25 2.9 9.9 1.2 22.9-4.2 31.5-3.5 5.6-12 12.6-18.2 15-7 2.7-19.5 3-25.8.7l-4.1-1.6-90.4 90.4-90.4 90.4h44l48.4-48.4 48.4-48.4-1.4-4.9c-3.5-12.3-.2-25.6 8.8-35.3 18.7-20.2 50.4-15.2 62.1 9.8 2.4 5 2.7 6.9 2.7 15.7 0 9-.3 10.6-2.9 16-3.8 7.7-10.6 14.4-18.1 18-7.5 3.6-19.3 4.5-27 2.1l-5-1.6-52.5 52.5-52.5 52.5h-178l-80.2-80.2-80.3-80.3V1019.8l3.2-3.7c1.7-2 50.4-55 108-117.9l104.9-114.3 10 9.2 10 9.2-2 2.1zm556.9-3.1c7.5 3.6 14.6 10.8 18.4 18.7 2.8 5.8 3.1 7.5 3.1 15.5 0 7.7-.4 9.9-2.7 14.8-3.9 8.3-8 13.1-14.9 17.3l-5.9 3.7V1373.6l5 4.9 5 4.9 4.8-4.5c2.6-2.5 19.2-18.2 37-34.8l32.2-30.3v-4.4c0-11.3 8.6-23.4 19-26.9 23.5-7.8 44.5 12.5 37.5 36.1-4.1 13.8-19.7 22.5-33.8 18.9-4.8-1.2-6.3-1.3-7.6-.3-.9.7-16.9 15.7-35.6 33.2-18.7 17.6-34.1 32-34.2 32.1-.1 0 7.1 7.4 16 16.3l16.2 16.2 36.6-34.4 36.5-34.4.1-6.6c.2-24.4 29.4-37.6 47.6-21.6 15.6 13.7 12.4 38.6-6 47.6-6 3-14.4 3.8-20.9 2.1-3-.8-5 1-89.4 80.3l-86.3 81.1-7.1-6.8c-3.9-3.7-40.3-39.9-80.8-80.3l-73.8-73.5V968.2l-5.3-3c-6.6-3.7-12.2-9.8-15.6-17.1-2.3-4.9-2.6-6.9-2.6-15.6s.3-10.7 2.7-15.7c3.7-7.9 9.8-14.2 17.7-18.1 6.1-3 7.3-3.2 16.6-3.2 8.7 0 10.7.3 15.7 2.7 7.9 3.7 14.2 9.8 18.1 17.7 3 6.1 3.2 7.3 3.2 16.6 0 8.7-.3 10.7-2.6 15.6-3.4 7.3-9 13.4-15.6 17.1l-5.3 3V1377.5l41.8 41.2 41.8 41.1 11.3-10.6 11.3-10.5-29.1-29.1-29.1-29.1V917.3l-5.5-3.8c-20-13.7-22.2-42.9-4.5-58.8 22.7-20.4 57.5-8.5 63 21.5 2.8 15.1-5.7 32.2-19.5 39.4l-5.5 2.9v452l24.9 24.9 25 25 9.1-8.7c5-4.8 9-9 9-9.4 0-.5-3.9-5-8.5-10.1l-8.5-9.3V871.4l-6.4-4.2c-7.1-4.7-10.5-8.7-14.4-17-2.3-4.8-2.7-7.1-2.7-14.7 0-8.2.3-9.7 3.3-15.7 4.3-8.7 12.9-16.8 20.9-19.7 8.5-3 21.7-2.5 29.3 1.2z"/><path d="M1155.9 466.3c-6.1 2.3-10 5.8-12.5 11.1-6.9 14.8 3 30.6 19.1 30.6 16.5 0 26.3-16.2 18.8-31.1-4.7-9.2-16.2-14-25.4-10.6zM1255.3 532.5c-15.7 7.9-15.9 30.1-.2 37.9 13.7 6.8 29.5-1.3 30.7-15.9.6-7.9-.4-11.7-4.5-16.5-7-8.1-16.6-10.1-26-5.5zM1359.8 592c-14.9 4.5-20.4 22.5-10.5 34.5 7.7 9.4 23.5 10 31.7 1.2 7-7.3 8-18.9 2.4-26.9-5.1-7.5-15.4-11.3-23.6-8.8zM884 757.2c0 78 .4 130.8.9 130.2.5-.5 7.2-7.9 15-16.4l14.1-15.4V626h-30v131.2zM941 726.1v100.1l6.3-6.8c3.5-3.8 10.5-11.4 15.5-16.9l9.2-10V626h-31v100.1zM1499.9 492.8c-18.9 9.8-13.2 37.9 8.1 40 12.5 1.2 23-8.5 23-21.2 0-6.7-.9-9.3-5.2-14.1-6.8-7.8-16.6-9.6-25.9-4.7zM1586 578.1v79.1l17.5-16.9 17.5-16.8V499h-35v79.1zM1491 690.6v58.7l5.8-5.4c3.1-2.9 18.4-17.7 34-32.8l28.2-27.5V632h-68v58.6zM381.8 578.7l-69.7 73.8-.1 68.7v68.6l22.8 24.2 22.7 24.1.5-93.5.5-93.5 56-59.2c30.8-32.5 56.7-60.1 57.6-61.3 1.6-2 1.3-2.4-9.5-13.9L451.5 505l-69.7 73.7z"/><path d="M439.2 605.2l-53.1 56.3v207l167.9 178 168 178V1394h29v-106.3l-.1-106.2-157.4-166.8L436 847.8V649l37.1-39.3c20.4-21.5 37.3-39.8 37.6-40.5.4-1-15.4-18.8-17.8-20-.3-.1-24.4 25.1-53.7 56zM733.3 603c-14 7.2-16.6 25.5-5 35.7 9.9 8.7 24.9 6.4 32.4-4.9 2.4-3.6 2.8-5.2 2.8-11.3 0-6.1-.4-7.7-2.8-11.3-4.1-6.3-9.4-9.3-16.9-9.9-5.1-.3-7.1 0-10.5 1.7zM189.5 671.7c-8.5 4.4-13.1 12.4-12.3 21.7 1.7 20.2 29.2 26.4 39.4 9 6.6-11.2 2.7-24.6-8.7-30.5-4.7-2.4-14.1-2.5-18.4-.2zM758.9 713.3c-6 2.3-9.6 5.4-12.3 10.9-7.3 14.6 2.6 30.8 18.9 30.8 13 0 22.4-10.4 21.3-23.6-1.1-13.1-15.8-22.6-27.9-18.1zM227.5 793.8c-8.2 3.9-12.5 10.6-12.5 19.6 0 17 17.6 26.9 32.4 18.2 13.3-7.8 13.5-27.7.4-36.3-5.4-3.6-14.5-4.2-20.3-1.5zM796.1 834c-5.2 1.3-11.2 6-13.9 11-1.9 3.7-2.3 5.6-2 11.1.6 12.1 8.8 20 20.6 20 19 .1 29.1-21.2 16.6-35.1-5.6-6.2-13.8-8.9-21.3-7zM247.9 905.8c-14.4 7.5-15.6 27.2-2.2 36.6 7.7 5.3 18.8 4.7 25.9-1.7 10-8.7 10-23.7 0-32.5-6.6-5.8-15.5-6.7-23.7-2.4zM275.5 1160.6c-8 4.4-12.5 11.4-12.5 19.6 0 6.7 2.7 12.6 7.5 16.5 13.5 11.2 33.4 2.8 35.1-14.9.5-4.5.1-6.2-2.3-10.8-4-7.9-9.4-11.4-18.1-11.7-4.8-.2-7.6.1-9.7 1.3zM340.1 1222.2c-7.8 3.8-12.9 13.7-11.6 22.3 2 13.4 17 22.1 29.3 16.9 8.1-3.4 13.2-11 13.2-19.8 0-6.7-.9-9.3-5.2-14.1-6.4-7.4-17.1-9.6-25.7-5.3zM409.5 1280.7c-12 6.3-16.2 21.1-8.9 31.6 4.3 6.2 12.2 10 19.2 9.3 17.6-1.7 26.2-21.5 15-35-1.7-2.1-5-4.7-7.2-5.7-5-2.3-14-2.4-18.1-.2zM343.5 1423.3c1.1.8 14 8.7 28.7 17.5l26.7 16.2 151.2-.2 151.1-.3 16.6-17.3 16.5-17.2H537.9c-164.7 0-196 .2-194.4 1.3zM445.4 1485.2c1 .6 14.4 8.7 29.8 17.9L503 1520h138.5l11.1-11.8c6.1-6.4 13.7-14.5 16.8-18l5.8-6.2H559.4c-84.8.1-115.4.4-114 1.2zM984.3 922.1L959 949.5v421l49.3 49.3 49.2 49.2 10-10 10-10-33.8-33.8-33.7-33.7-.2-243.5-.3-243.4-25.2 27.5zM1295 925.7c-7.7 3.9-11.3 9.3-11.8 17.7-.4 5.6-.1 7.1 2.4 11.6 7.1 13.1 25.7 14.9 35.1 3.5 11.2-13.5 2.8-33.4-14.9-35.1-4.5-.5-6.2-.1-10.8 2.3z"/><path d="M907.8 1005.4l-22.8 24.8V1375.5l66.5 66.5 66.5 66.5 10-10 10-10-53.5-53.5-53.5-53.5-.2-200.4-.3-200.4-22.7 24.7zM1216.2 989.1c-10.5 5.2-14.9 17.4-10.1 27.9 2.7 6 4.5 7.9 10.4 10.6 8.1 3.9 16 2.9 22.9-2.8 12.2-10.1 9.1-30.1-5.6-36.2-5.3-2.2-12.5-2-17.6.5zM1144.6 1052.5c-8.3 2.9-13.6 10.9-13.6 20.3 0 8.3 3 13.7 10 17.9 10.2 6.2 22.1 3.7 28.6-5.9 11.7-17.3-5.3-39.4-25-32.3zM1352.9 1163.3c-2.4 1.3-5.7 4.3-7.4 6.6-2.5 3.6-3 5.3-3.3 11.4-.2 6 .1 7.8 2 11.1 5.1 8.6 15.5 13.2 24.6 10.7 4.8-1.3 11.5-6.9 13.9-11.5 3.8-7.2 1.4-19.5-4.9-25.3-6-5.7-17.3-7-24.9-3zM1331.7 1283.4c-9 3.3-14.7 11.1-14.7 19.9 0 20.1 24.5 29.4 37.7 14.3 11.3-12.8 2.9-33.4-14.3-35.1-2.9-.3-6.4 0-8.7.9zM1308.5 1387.7c-12 6.3-16.2 21.1-8.9 31.6 4.3 6.2 12.2 10 19.2 9.3 17.6-1.7 26.2-21.5 15-35-1.7-2.1-5-4.7-7.2-5.7-5-2.3-14-2.4-18.1-.2zM1624.4 815.9c-11.9 5.4-16.3 20.4-9.2 31.9 3.1 5.1 11.1 9.2 17.8 9.2 18.3 0 28.3-21.8 16.2-35.3-6.7-7.4-16.3-9.6-24.8-5.8zM1546.4 862.9c-2.2 1-5.4 3.5-7.1 5.6-11.2 13.5-2.8 33.4 14.9 35.1 7 .7 14.9-3.1 19.2-9.4 3.8-5.4 4.8-15 2.1-20.3-5.7-11.3-18.1-16-29.1-11zM1471.2 912.1c-4.4 1.3-11.6 8.6-13.2 13.4-5.7 17.1 11.6 33.5 28.5 27 5.1-1.9 10.8-8 12.6-13.3 2.9-8.7-1-19.5-9-24.8-4.5-2.9-13.4-4-18.9-2.3zM1753.9 1298.5c-8.4 4.5-8.2 17.7.2 22.1 6.8 3.5 15.3.1 17.8-7.3 1.3-3.5 1.3-4.6 0-7.9-2.7-7.1-11.4-10.5-18-6.9zM1805.3 1348.5c-8.7 3.7-9.7 16.7-1.8 21.9 3.4 2.3 10.6 2.3 14 0 8-5.2 6.8-18.3-2-22-4.2-1.7-6.1-1.7-10.2.1zM1646.5 1430.5l-9 8.4 16 16.1c8.8 8.8 16.3 15.9 16.6 15.8.3-.2 4.6-4 9.5-8.6l8.8-8.3-15.9-15.9c-8.8-8.8-16.2-16-16.5-16-.3.1-4.5 3.9-9.5 8.5zM1606.1 1468.7l-11.2 10.8 16 15.9 16 15.9 6.8-6.1c3.7-3.3 8.8-8.1 11.3-10.6l4.5-4.6-16.1-16.1-16-16-11.3 10.8z"/></svg>