<?xml version="1.0" encoding="utf-8"?>
<!-- Generator: Adobe Illustrator 24.0.1, SVG Export Plug-In . SVG Version: 6.00 Build 0)  -->
<svg version="1.1" id="Layer_1" xmlns="http://www.w3.org/2000/svg" xmlns:xlink="http://www.w3.org/1999/xlink" x="0px" y="0px"
	 viewBox="0 0 1000 1000" style="enable-background:new 0 0 1000 1000;" xml:space="preserve">
<style type="text/css">
	.st0{display:none;fill:#DCDCDC;}
	.st1{fill:#0A557A;}
	.st2{fill:#074972;}
	.st3{fill:#E2E2E2;}
	.st4{fill:#BDCADE;}
	.st5{fill:#063D66;}
	.st6{fill:#0299B2;}
	.st7{fill:#0085A6;}
	.st8{fill:#01253D;}
	.st9{fill:#022B42;}
	.st10{fill:#F9F9F9;}
	.st11{fill:#ECECEC;}
	.st12{fill:url(#SVGID_1_);}
	.st13{fill:#D5D5D5;}
	.st14{fill:#DCDCDC;}
	.st15{fill:#F2DDCC;}
	.st16{fill:#EED5C0;}
	.st17{fill:#535353;}
	.st18{fill:#FFE9D7;}
	.st19{fill:#F8DEC8;}
	.st20{fill:#FFFFFF;}
	.st21{fill:#EBEBEB;}
	.st22{fill:#4E4E4E;}
	.st23{fill:#F0B888;}
	.st24{fill:#555555;}
	.st25{fill:#7F7F7F;}
	.st26{fill:#DBDBDB;}
	.st27{fill:#959593;}
	.st28{fill:#FBFBFF;}
	.st29{fill:#CACACF;}
	.st30{fill:#BFBFBF;}
</style>
<rect x="-12.4" y="-7.7" class="st0" width="1021.4" height="1021.4"/>
<g>
	<g>
		<g>
			<path class="st1" d="M175.4,774.2c0.2-1.1,0.5-2.2,0.5-2.2c0.1-0.3,0.1-0.5,0.1-0.5c0.7-2.4,5.2-5.7,6.5-6.6
				c0.2-0.1,0.4-0.3,0.5-0.3c15.3-9.9,34.6-14,34.6-14c18.5-4.4,32.8-9.5,42.6-13.5c12.8-5.2,26.2-11.2,40.6-17.7
				c8.7-4,15.2-7,15.2-7c12.9-6,16.7-8,26.4-12.4c6.1-2.8,0.3,0,19.5-7.8c2.4-1,6.1-2.5,11.3-3.1c3.6-0.4,6.5-0.2,7.9-0.1
				c0.3,0,0.6,0.1,0.7,0.1l0,0c0.3,0,98.5-0.8,251-2.2c0.7,0,1.7,0,2.9,0.1c0,0,2.3,0.2,4.5,0.8c29.4,7.9,46.6,15,46.6,15
				c23.5,11.7,36.1,15.6,48.7,19.2c15.8,4.6,38.8,9.4,49.9,11.8c0,0,15,3.1,32.3,12.9c7.8,4.4,11,8.7,12.5,13.1
				c0.2,0.6,0.3,1,0.4,1.3c-20.2,81.5-40.3,163-60.5,244.4c-170.7,0-341.3,0-512,0C210,872.8,175.2,775.3,175.4,774.2z"/>
			<path class="st2" d="M781.3,732.9c4.4,1.5,15.4,5.8,20.7,16.8c1.6,3.4,2.2,6.3,2.8,9.8c2.4,14.8-1.6,27.3-2.8,30.9
				c-15.1,46.1-31.7,70-31.7,70c-44.1,63.3-106.4,136.8-113.5,145.2c-100.6,0-201.3,0-301.9,0c-37.5-39.4-64.9-73-83.4-97
				c-8.7-11.3-18.7-26.4-38.6-56.5c0,0-13.4-20.3-25.7-52.2c-2.5-6.6-4.8-13.9-4-23.2c1-11.6,6.5-20.2,10.1-25
				c2.6-0.6,6.3-1.5,10.6-2.6c12.6-3.3,23.2-7,32.7-10.6c16.7-6.3,29.5-12.3,44.1-19.1c13.5-6.3,27-12.6,40.5-18.9
				c6.3-3,12.9-5,19.3-7.7c2.5-1.1,6.7-2.9,12.6-3.6c3.6-0.4,6.2-0.2,6.8-0.2c6.9,0.4,97.5-0.3,255.7-2c3.1,0.7,7.4,1.7,12.6,3
				c8.6,2.3,22,5.8,37.3,12.3c10.4,4.4,10.6,5.5,22.5,10.3c3.7,1.5,10,3.9,17.9,6.5c9.5,3.1,16.5,4.8,26.8,7.4
				C764.3,729.4,774.1,731.5,781.3,732.9z"/>
			<path class="st3" d="M388.5,698.5c42-1.6,83.9-3.2,125.9-4.9c30.9,7.9,61.8,15.8,92.8,23.7c-32.6,79.1-65.2,158.3-97.8,237.4
				C469.1,869.4,428.8,784,388.5,698.5z"/>
			<path class="st4" d="M466.9,746.6c4.8,29.8,9.7,59.7,14.5,89.5c17.3-15.8,34.7-31.6,52-47.4c4.1-17.3,8.2-34.7,12.4-52
				c-3.1-7.4-6.2-14.7-9.3-22.1c-24.3,3.9-48.6,7.8-72.8,11.7C464.8,733,465.8,739.8,466.9,746.6z"/>
			<path class="st2" d="M215.9,1005.5c-4.9-9.4-24.6-47.8-38.4-87.9c-7.6-22-13.6-45.3-17.1-58.7c-1.4-5.3-5.2-20.7-4.8-40
				c0.1-3.3,0.3-10.2,2.6-18.7c0.3-1.1,2.7-9.5,9.1-18.7c4.6-6.7,6.8-7.2,8.1-7.2c4.3,0,7.3,5.6,7.7,6.4c2.5,5.1,6.4,13.1,11.1,22.9
				c9,19,25.2,53.8,57.7,133.8c6.9,17,16.3,40.3,27.2,68.2C258.1,1005.5,237,1005.5,215.9,1005.5z"/>
			<path class="st2" d="M796.1,1006c5.1-14.2,9.3-25.7,12.1-33.4c15.3-41.9,30.1-84.1,45.8-125.9c0.7-1.9,2.8-7.3,3.4-14.7
				c0.4-4.6,0.2-8.7-0.7-14.4c-0.7-4.7-3-17.6-11.9-38.3c-7.7-17.8-10.5-18.4-11.6-18.2c-1.4,0.2-2.4,2.1-2.9,3.7
				c-13.7,35.4-27.1,72.9-40,112.3c-14.5,44.7-27,87.7-37.7,128.8C767.2,1006,781.7,1006,796.1,1006z"/>
			<path class="st5" d="M317.5,711.5c10.7,10.8,20.1,18.6,26.7,23.8c0,0,15.8,13.4,37.7,36.8c0.9,0.9,2.3,2.8,2.6,5.3
				c0.3,2.6-0.8,4.6-1.5,5.8c-4.4,7.7-9.3,12.9-9.3,12.9c-3,3.2-7.3,7.8-12.5,13.9c49.4,48.3,98.8,96.5,148.2,144.8
				c-10.6-24.4-25.4-58.7-43.5-100c-24-54.9-34.8-78.6-50.9-109c-10.7-20.1-20.1-36.4-26.5-47.3c-3.6-3.3-7.2-6.6-10.7-9.9
				c-1.5,0.1-3.3,0.2-5.3,0.5c-0.3,0-2.8,0.4-5.5,1.1c-6.1,1.7-12.4,4.8-12.4,4.8c-7.2,3.5-5,1.8-19.3,8.1
				C330,705.6,324,708.3,317.5,711.5z"/>
			<path class="st5" d="M635.6,687c0.7,0.2,1.7,0.4,3,0.7c1.7,0.4,5.6,1.3,10.7,2.7c3.6,1,9.3,2.5,14.8,4.2
				c5.6,1.8,13.3,4.5,22.5,8.8c-11.6,8.9-23.9,19-36.5,30.4c-11.9,10.8-22.5,21.5-32,31.7c-0.2,0.2-3.5,3.3-2.7,7
				c0.2,1.1,0.8,2,1.3,2.6c2.1,3.1,4.6,6.4,7.5,9.9c3.2,3.7,6.3,6.9,9.2,9.6c-6,8.9-14.8,22.1-25.7,37.9c0,0-19.6,28.5-51.5,71.5
				c-7.6,10.2-16.8,22.5-31.3,36.8c-6.3,6.2-11.8,11.1-15.6,14.3c32.6-79.1,65.2-158.3,97.8-237.4
				C616.6,707.3,626.1,697.1,635.6,687z"/>
			<path class="st6" d="M509.4,954.8c-0.3-85.2-0.6-170.3-1-255.5c-10.5,11.9-20.9,23.8-31.4,35.8c3.7,3.5,7.4,7,11.1,10.4
				c-3.4,45.6-6.8,91.2-10.2,136.8C488.4,906.5,498.9,930.7,509.4,954.8z"/>
			<path class="st7" d="M508.4,699.3c11.3,11.3,22.7,22.7,34,34c-4.3,5.2-8.6,10.3-12.9,15.5c4.1,42.4,8.2,84.9,12.2,127.3
				c-10.8,26.2-21.6,52.5-32.4,78.7C509.1,869.7,508.7,784.5,508.4,699.3z"/>
		</g>
		<g>
			<path class="st8" d="M719.5,899.8c-6.6,5.1-13.2,10.2-19.8,15.2c-16,0.1-32,0.1-48.1,0.2c-6.1-4.9-12.3-9.9-18.4-14.8
				c0.2-18.8,0.4-37.5,0.5-56.3c28.8-0.1,57.6-0.1,86.4-0.2C720,862.6,719.8,881.2,719.5,899.8z"/>
			<path class="st9" d="M715,846.5c0,16.9-0.1,33.8-0.1,50.8c-5.5,4.4-11,8.9-16.5,13.3c-14.4,0.1-28.8,0.2-43.1,0.3
				c-5.5-4.5-11-9-16.5-13.5C664.1,880.5,689.6,863.5,715,846.5z"/>
		</g>
	</g>
	<g>
		<g>
			<g>
				<path class="st10" d="M508.4,699.3c-17.9,20.4-35.8,40.8-53.7,61.1c-25.7-23.9-51.3-47.9-77-71.8c0-0.6,0-1.4,0.2-2.2
					c0.3-1.1,0.7-1.9,1-2.5c7.8-12.5,15.5-24.9,23.3-37.4c0-0.7,0-1.5,0-2.2c-8.9-2.7-21.5-6.9-35.9-13.3
					c-21.9-9.7-67.9-30.7-105.8-77.9c-25.3-31.5-38.5-64-45.6-89.3c-5-1.3-13.2-4.2-21.1-10.9c-1.9-1.7-18.8-16.4-18.7-37.6
					c0-20.5,15.9-40.3,39.5-47.7c7.7-29.7,19.1-51.8,27.8-66.2c42.9-70.2,110.4-98.6,136.8-109.3c6.6-2.7,26.9-10.6,55.6-16.7
					c35.8-7.6,97.1-15,175,4.3c16,4.2,38.5,11.3,63.6,24.1c70.2,35.6,106,88.8,106,88.8c10,14.8,24,39.2,33,73.3
					c5.5,1.3,15.9,4.5,25.4,13.2c3.2,2.9,19.2,17.6,17.8,39.2c-1.3,18.5-14.5,29.9-20.1,34.8c-9.2,8-18.8,11.5-24.6,13.2
					c-4.9,16.7-10.8,31-16.8,43c0,0-7.6,15-17.3,29c-25,36.1-76.2,81.1-145.6,103.8c-10.9,3.6-19.8,5.8-24.4,6.9c0,0.6,0,1.3,0,1.9
					c9.5,12,19.1,24,28.6,36c-22.5,24-45,48.1-67.5,72.1C548.3,739.2,528.3,719.3,508.4,699.3z"/>
				<path class="st11" d="M382.2,687.8c8.3-14.2,16.6-28.4,24.9-42.6c14.4,35.4,28.9,70.7,43.3,106.1
					C427.7,730.1,404.9,709,382.2,687.8z"/>
				<path class="st11" d="M630.7,686.7c-20.3,21.6-40.6,43.1-60.9,64.7c11.9-32.2,23.8-64.4,35.8-96.6
					C613.9,665.3,622.3,676,630.7,686.7z"/>
			</g>
			
				<linearGradient id="SVGID_1_" gradientUnits="userSpaceOnUse" x1="177.1996" y1="586.2645" x2="345.1001" y2="586.2645" gradientTransform="matrix(1 0 0 -1 0 1002)">
				<stop  offset="0" style="stop-color:#F4F4F4"/>
				<stop  offset="1" style="stop-color:#F4F4F4;stop-opacity:0.1"/>
			</linearGradient>
			<path class="st12" d="M345.1,416.1c-0.1,30.6-101.1,71.4-145.6,38.4c-3.8-2.8-22.2-17.3-22.3-38.4c-0.1-22,19.9-37,23.3-39.5
				C245.6,344,345.2,385.6,345.1,416.1z"/>
		</g>
		<g>
			<path class="st13" d="M797.1,375c10,2,17.5,5.4,22.3,8.1c8.4,4.7,18.1,10.2,22.3,21.4c2.9,7.8,1.7,14.9,1.2,17.3
				c-4,19.6-25.4,28.2-30.1,30.1c-6.9,2.8-12.9,3.6-16.9,3.9C796.4,429,796.7,402,797.1,375z"/>
			<path class="st14" d="M518.4,650.9c0.2-145.3,0.3-290.7,0.5-436c29.9-8.8,59.7-17.6,89.6-26.4c10.3,3.2,24.5,8.1,40.6,15.5
				c11.7,5.4,48.8,22.8,79.7,52.2c11.5,11,72.3,68.7,72,157.2c-0.2,51.8-21.1,89.2-30.2,105c-31.2,54.2-76.1,80-101.2,94
				C608.7,646.4,550.3,651,518.4,650.9z"/>
		</g>
	</g>
	<g>
		<path class="st15" d="M413.3,647.2c10.7,8.2,20,14.7,27,19.3c17.1,11.5,27.9,18.7,43.5,25c10.1,4.1,18.8,6.4,24.7,7.8
			c-0.1-12.7-0.1-25.3-0.2-38c-10.4,0.1-21.7-0.4-33.8-1.6C450.9,657.3,430.3,652.5,413.3,647.2z"/>
		<path class="st16" d="M508.2,661.3c11,0.4,23.1,0.3,36.2-0.7c20.9-1.6,39.3-5.3,54.6-9.3c-7.7,6.6-14.6,11.7-19.6,15.2
			c-11.9,8.3-30.2,21-56.2,29c-6.2,1.9-11.3,3.1-14.8,3.8C508.4,686.7,508.3,674,508.2,661.3z"/>
	</g>
	<g>
		<g>
			<path class="st17" d="M765.9,514.9c-7.7-63.4-23.9-125.4-35.4-188.2c-0.3-1.8-1.2-6.9-5.1-11.1c-6.7-7.2-17.8-7-21.7-7
				c-17.5,0.2-88.7-0.1-186.7,0c-99-0.3-171.4,0-189,0c-3.6,0-13.3,0-19.6,6.4c-4.5,4.6-5.3,10.5-5.7,12.5
				c-21,102.7-35.7,178.1-36.9,187.3c-0.3,2.1-0.8,6.9,1.6,11.5c0.7,1.4,2.1,3.6,6.9,7.1c3.3,2.4,8.4,5.7,15.5,8.3
				c8.3,3,14.7,4.7,15.3,4.8c59.1,13.5,93.2,17.2,93.2,17.2c25.9,2.9,45.7,3.8,61.7,4.5c9.6,0.4,28.5,1.1,55.8,1
				c40-0.1,73.5-0.2,117.6-5.1c46.5-6.8,80.9-13.4,92.8-16.9c6.2-1.8,13.9-4.9,15.6-5.6c6.2-2.5,10.8-4.8,15.5-8.3
				c4.8-3.6,6.2-5.8,6.9-7.1C766.8,521.6,766.1,516.8,765.9,514.9z"/>
			<path class="st18" d="M745.9,507c-1.5-14-14.2-70-17.6-86.9c-5.7-28-11.3-56.1-16.9-84.1c-0.5-1.7-1.8-5.2-5.2-8.1
				c-5.2-4.6-11.3-4.5-12.7-4.4c-53.8,0-107.6-0.1-161.4-0.1l0,0c-5.1,0-10.1,0-15.2,0c-5.1,0-10.1,0-15.2,0l0,0
				c-53.8,0-107.6,0.1-161.4,0.1c-1.4-0.1-7.6-0.2-12.7,4.4c-3.3,3-4.7,6.5-5.2,8.1c-4.6,15.3-15.4,75.7-16.9,84.1l0,0
				c-0.1,0.5-4.3,20.8-18.2,86.7c-0.2,1.3-0.5,3.5,0,6c0.5,2.9,1.7,5,2.3,5.9c6.1,10.3,21.5,14,24.9,14.8l0,0
				c28.7,7.3,37.2,8.7,37.2,8.7c28.6,4.7,42.9,7,43.8,7.1c42.8,5.5,77.5,6.2,105.2,6.5c5.9,0.1,11.4,0.1,16.3,0.1
				c4.9,0,10.4,0,16.3-0.1c27.7-0.4,62.4-1,105.2-6.5c0.9-0.1,15.2-2.5,43.8-7.1c0,0,8.5-1.4,37.2-8.7l0,0
				c7.2-2.5,12.5-5.7,15.7-8.1c4.4-3.2,8.7-6.4,10.3-11.9C746.2,510.6,746,508.1,745.9,507z"/>
			<path class="st19" d="M332.4,324.8c119.7,71.8,239.4,143.7,359.1,215.5c8.7-1.9,16-3.7,21.6-5.2c5.1-1.3,8-2.1,11.8-3.8
				c5.6-2.5,9.2-5.2,12.2-7.4c3.9-2.9,5.1-4.5,6-5.8c2.2-3.4,2.7-6.5,2.8-7.1c0.2-1.7,0.1-3.1,0-4c-5.9-29-11.8-58-17.6-86.9
				c-5.7-28-11.3-56.1-16.9-84.1c-0.3-1-0.8-2.3-1.6-3.7c-1.4-2.4-2.9-3.8-3.6-4.4c-0.6-0.6-2.9-2.5-6.5-3.6
				c-2.5-0.8-4.6-0.8-5.4-0.8c-5,0-152.9,0-355.2,0c-0.3,0-0.8,0-1.4,0.1c-1.4,0.1-2.5,0.4-3.1,0.6
				C334,324.2,333.2,324.5,332.4,324.8z"/>
		</g>
		<g>
			<circle class="st20" cx="409.1" cy="452.7" r="55.6"/>
			<path class="st21" d="M413,508.1c-4.7-0.8-11.5-2.5-19-6.2c-5.3-2.6-12.7-6.2-19-13.6c-12.1-14.2-10.8-32.1-10.6-34.8
				c1.6-18.1,12.7-29.1,15.8-32c3.5-3.3,13.7-11.7,29.2-13c12-1,21.4,2.8,25.8,5c15.5,7.7,21.8,21.1,23.6,25.2
				c4.8,10.6,4.9,20.3,4.6,25.5c1.3,0.2,2.5,0.3,3.8,0.5c0.4-7.9,0.8-15.7,1.2-23.6c-4.7-9.7-9.5-19.5-14.2-29.2
				c-9.7-5.8-19.5-11.6-29.2-17.4c-10.7-0.5-21.3-0.9-32-1.4c-6.9,3.4-13.7,6.8-20.6,10.2c-6.3,7.9-12.5,15.9-18.8,23.8
				c-1.5,8.3-3.1,16.5-4.6,24.8c1.8,8.2,3.6,16.4,5.4,24.6c5.3,7.4,10.7,14.8,16,22.2c5.3,2.8,10.7,5.6,16,8.4
				c5.9,1.4,11.9,2.8,17.8,4.2C407.2,510.3,410.1,509.2,413,508.1z"/>
			<ellipse class="st22" cx="409" cy="453.5" rx="8.3" ry="30.9"/>
			<path class="st22" d="M409.2,384.2c-36.6,0-66.3,29.7-66.3,66.3s29.7,66.3,66.3,66.3s66.3-29.7,66.3-66.3
				S445.8,384.2,409.2,384.2z M409.1,508.3c-30.7,0-55.6-24.9-55.6-55.6s24.9-55.6,55.6-55.6s55.6,24.9,55.6,55.6
				S439.8,508.3,409.1,508.3z"/>
		</g>
		<g>
			<circle class="st20" cx="628.6" cy="452.7" r="55.6"/>
			<path class="st21" d="M624.6,508.1c4.7-0.8,11.5-2.5,19-6.2c5.3-2.6,12.7-6.2,19-13.6c12.1-14.2,10.8-32.1,10.6-34.8
				c-1.6-18.1-12.7-29.1-15.8-32c-3.5-3.3-13.7-11.7-29.2-13c-12-1-21.4,2.8-25.8,5c-15.5,7.7-21.8,21.1-23.6,25.2
				c-4.8,10.6-4.9,20.3-4.6,25.5c-1.3,0.2-2.5,0.3-3.8,0.5c-0.4-7.9-0.8-15.7-1.2-23.6c4.7-9.7,9.5-19.5,14.2-29.2
				c9.7-5.8,19.5-11.6,29.2-17.4c10.7-0.5,21.3-0.9,32-1.4c6.9,3.4,13.7,6.8,20.6,10.2c6.3,7.9,12.5,15.9,18.8,23.8
				c1.5,8.3,3.1,16.5,4.6,24.8c-1.8,8.2-3.6,16.4-5.4,24.6c-5.3,7.4-10.7,14.8-16,22.2c-5.3,2.8-10.7,5.6-16,8.4
				c-5.9,1.4-11.9,2.8-17.8,4.2C630.5,510.3,627.5,509.2,624.6,508.1z"/>
			<ellipse class="st22" cx="628.7" cy="453.5" rx="8.3" ry="30.9"/>
			<path class="st22" d="M562.2,450.4c0,36.6,29.7,66.3,66.3,66.3s66.3-29.7,66.3-66.3s-29.7-66.3-66.3-66.3
				C591.8,384.2,562.2,413.9,562.2,450.4z M573,452.7c0-30.7,24.9-55.6,55.6-55.6c30.7,0,55.6,24.9,55.6,55.6s-24.9,55.6-55.6,55.6
				C597.9,508.3,573,483.4,573,452.7z"/>
		</g>
		<circle class="st23" cx="501.7" cy="530.2" r="5.7"/>
		<circle class="st23" cx="530" cy="530.2" r="5.7"/>
	</g>
	<g>
		<g>
			<circle class="st7" cx="498.9" cy="629.7" r="10.4"/>
			<circle class="st7" cx="498.4" cy="629.1" r="9.9"/>
		</g>
		<g>
			<g>
				<g>
					<circle class="st24" cx="518.9" cy="630.1" r="5.8"/>
				</g>
				<g>
					<circle class="st25" cx="518.6" cy="629.8" r="5.5"/>
				</g>
			</g>
		</g>
		<g>
			<g>
				<g>
					<circle class="st24" cx="533" cy="630.1" r="5.8"/>
				</g>
				<g>
					<circle class="st25" cx="532.8" cy="629.8" r="5.5"/>
				</g>
			</g>
		</g>
	</g>
	<g>
		<g>
			<path class="st7" d="M452.5,161.5c-3.2,0.7-8.3,2.3-13.5,6c-3.2,2.3-12,8.6-12,16.7c0,1.1,0.2,6.4,7.5,12.7
				c21.1,18.4,72,19.6,81.8,19.7c2.6,0,4.5,0,5.2,0c12.6,0,30.9-0.2,51.8-6c11.8-3.2,16.9-6.2,18.4-7c7.3-4.3,17-10,17.5-19.1
				c0.6-11.1-13.4-19.2-14.6-19.9c-3.3-1.9-6.4-2.8-8.6-3.2C541.5,161.5,497,161.5,452.5,161.5z"/>
			<path class="st5" d="M452.1,167.7c-0.9,0.3-2.3,0.8-3.7,1.8c-0.8,0.6-3,2.3-4,5.2c0,0-1,2.9,0.1,6.4c1.2,4.1,9,12,37.4,16.4
				c10.4,1.6,19.9,2.2,37.9,2c37.8-0.4,56.3-3.3,67.8-12.7c2.6-2.1,7.4-6.2,6.8-11c-0.7-5.2-7.3-8-8.5-8.5
				C541.2,167.5,496.6,167.6,452.1,167.7z"/>
		</g>
		<g>
			<rect x="452.5" y="62.8" class="st26" width="133.6" height="117.2"/>
			<path class="st3" d="M452.5,180c0.1,0.5,0.4,1.3,0.9,2.2c1.1,1.9,2.8,2.8,3.7,3.2c5.9,3,9.9,4,9.9,4c5.5,1.4,8.3,2.1,12.6,2.9
				c6.1,1,11.5,1.6,16.8,2c5.7,0.4,10.9,0.5,21.1,0.6c16.8,0.2,21.9,0,25.1-0.2c6.2-0.4,10.1-0.9,13-1.4c1.8-0.3,3.5-0.6,5-0.9
				c2.1-0.4,4.5-1,8.2-2c4.2-1.1,10.2-2.9,13.7-5.2c0.9-0.6,2.2-1.5,2.9-3.1c0.4-0.8,0.6-1.6,0.7-2.1C541.6,180,497,180,452.5,180z"
				/>
			<path class="st3" d="M581.9,177.5c0-37.5,0-74.9,0-112.4c-41.6,38.3-83.1,76.6-124.7,115c3.4,1.4,8.2,3.1,14,4.8
				c13,3.6,23.2,4.2,33.9,4.7c13.5,0.7,23.3,0,33.4-0.6c20.3-1.4,27.8-3.7,33.6-6.3C576.4,180.8,579.7,178.9,581.9,177.5z"/>
			<rect x="489" y="103" class="st27" width="20" height="25.1"/>
			<rect x="529.8" y="103" class="st27" width="20" height="25.1"/>
			<rect x="502.4" y="142.9" class="st28" width="20.7" height="13.7"/>
			<rect x="523.1" y="142.9" class="st29" width="13.7" height="13.7"/>
			<rect x="452.5" y="52.6" class="st30" width="133.6" height="10.2"/>
		</g>
	</g>
</g>
</svg>
