<?xml version="1.0" encoding="UTF-8"?>
<svg id="Layer_2" data-name="Layer 2" xmlns="http://www.w3.org/2000/svg" viewBox="0 0 68.52 60.62">
  <defs>
    <style>
      .cls-1 {
        fill: none;
        stroke: #fff;
        stroke-miterlimit: 10;
        stroke-width: 1px;
      }

      .cls-2 {
        fill: #fff;
        stroke-width: 0px;
      }
    </style>
  </defs>
  <g id="Layer_1-2" data-name="Layer 1">
    <g>
      <path class="cls-1" d="m41.68,11.95c.6.12,1.21.26,1.83.41,1.57.41,3.78,1.11,6.24,2.36,6.88,3.49,10.39,8.71,10.39,8.71.98,1.45,2.35,3.85,3.24,7.19.54.13,1.56.44,2.49,1.3.31.29,1.89,1.73,1.74,3.84-.12,1.81-1.42,2.93-1.97,3.41-.91.78-1.85,1.13-2.42,1.29-.47,1.64-1.06,3.04-1.65,4.21-.11.21-.77,1.51-1.69,2.85-3.76,5.43-9.61,8.27-11.15,8.97-1.21.55-2.17.9-2.82,1.13-4.06,1.44-7.3,1.83-8.12,1.92-1.87.2-4.37.32-7.33,0-2.03-.25-4.9-.75-8.23-1.8-.95-.3-2-.63-3.16-1.13-5.45-2.35-8.75-6.28-9.82-7.64-2.57-3.27-3.83-6.53-4.47-8.75-.49-.13-1.29-.41-2.07-1.07-.19-.16-1.84-1.6-1.84-3.68,0-2.01,1.56-3.95,3.87-4.67.75-2.92,1.87-5.08,2.73-6.49,4.2-6.88,10.82-9.67,13.41-10.72.65-.26,2.64-1.04,5.45-1.64.36-.08.75-.15,1.16-.23"/>
      <g>
        <path class="cls-1" d="m58.79,44.08c-.76-6.21-2.34-12.29-3.47-18.45-.03-.17-.12-.67-.5-1.09-.66-.71-1.75-.69-2.13-.69-1.71.02-8.7-.01-18.3,0-9.71-.03-16.8,0-18.53,0-.35,0-1.3,0-1.92.63-.45.45-.52,1.03-.56,1.23-2.05,10.07-3.5,17.46-3.61,18.36-.03.21-.08.67.16,1.13.07.13.21.35.68.7.32.24.82.56,1.52.81.81.29,1.44.46,1.5.47,5.79,1.32,9.14,1.69,9.14,1.69,2.54.28,4.48.37,6.05.44.95.04,2.79.11,5.47.1,3.92-.01,7.2-.02,11.53-.5,4.55-.67,7.93-1.31,9.1-1.65.6-.18,1.37-.48,1.53-.55.61-.25,1.06-.47,1.52-.81.47-.35.61-.57.68-.7.25-.47.18-.94.16-1.13Z"/>
        <g>
          <ellipse class="cls-2" cx="23.81" cy="38.06" rx=".81" ry="3.03"/>
          <path class="cls-2" d="m23.83,31.27c-3.59,0-6.49,2.91-6.49,6.49s2.91,6.49,6.49,6.49,6.49-2.91,6.49-6.49-2.91-6.49-6.49-6.49Zm-.02,12.16c-3.01,0-5.45-2.44-5.45-5.45s2.44-5.45,5.45-5.45,5.45,2.44,5.45,5.45-2.44,5.45-5.45,5.45Z"/>
        </g>
        <g>
          <ellipse class="cls-2" cx="45.35" cy="38.06" rx=".81" ry="3.03"/>
          <path class="cls-2" d="m38.83,37.76c0,3.59,2.91,6.49,6.49,6.49,3.59,0,6.49-2.91,6.49-6.49s-2.91-6.49-6.49-6.49c-3.59,0-6.49,2.91-6.49,6.49Zm1.06.22c0-3.01,2.44-5.45,5.45-5.45s5.45,2.44,5.45,5.45c0,3.01-2.44,5.45-5.45,5.45-3.01,0-5.45-2.44-5.45-5.45Z"/>
        </g>
        <circle class="cls-2" cx="32.89" cy="45.58" r=".56"/>
        <circle class="cls-2" cx="35.67" cy="45.58" r=".56"/>
      </g>
      <g>
        <g>
          <circle class="cls-2" cx="32.62" cy="56.46" r="1.02"/>
          <circle class="cls-2" cx="32.57" cy="56.41" r=".97"/>
        </g>
        <g>
          <circle class="cls-2" cx="34.58" cy="56.5" r=".57"/>
          <circle class="cls-2" cx="34.55" cy="56.47" r=".54"/>
        </g>
        <g>
          <circle class="cls-2" cx="35.97" cy="56.5" r=".57"/>
          <circle class="cls-2" cx="35.94" cy="56.47" r=".54"/>
        </g>
      </g>
      <g>
        <g>
          <path class="cls-2" d="m43.43,12.83c0,.86-1.31,1.63-1.71,1.87-.14.08-.64.37-1.8.69-2.05.57-3.84.58-5.08.59-.06,0-.25,0-.51,0-.97-.02-5.95-.13-8.02-1.93-.71-.62-.73-1.14-.73-1.25,0-.8.86-1.41,1.17-1.64.5-.36,1-.51,1.32-.59v.61h-.04c-.09.03-.22.08-.36.18-.07.05-.3.22-.39.51,0,0-.1.28,0,.63.12.4.88,1.18,3.67,1.61,1.02.16,1.95.21,3.71.2,3.7-.04,5.52-.32,6.64-1.24.25-.21.72-.61.66-1.08-.06-.47-.63-.75-.8-.82,0-.15.01-.3.02-.45.32.14.78.39,1.24.79.6.52,1,.87,1.01,1.34Z"/>
          <path class="cls-2" d="m41.31,13.05c-1.12.92-2.94,1.21-6.64,1.24-1.77.02-2.69-.04-3.71-.2-2.78-.43-3.55-1.21-3.67-1.61-.1-.35,0-.63,0-.63.1-.29.32-.45.39-.51.14-.1.27-.15.36-.18h.04v1.21c.01.05.03.13.08.21.11.18.28.27.37.32.58.29.97.39.97.39.54.14.81.21,1.24.28.6.1,1.13.16,1.65.2.56.04,1.07.05,2.07.06,1.64.02,2.15,0,2.46-.02.6-.04.99-.09,1.27-.13.18-.03.34-.06.49-.09.2-.04.44-.09.81-.19.41-.11,1-.28,1.35-.51.09-.06.21-.15.29-.3.04-.08.06-.16.07-.21v-1.23c.17.08.74.35.8.82.06.47-.41.87-.66,1.08Z"/>
        </g>
        <g>
          <rect class="cls-1" x="28.07" y=".89" width="13.1" height="11.49"/>
          <path class="cls-2" d="m41.17,12.38s-.02.12-.07.21c-.08.15-.2.24-.29.3-.35.23-.93.4-1.35.51-.37.1-.6.15-.81.19-.15.03-.31.06-.49.09-.29.05-.67.1-1.27.13-.31.02-.82.05-2.46.02-1-.01-1.51-.02-2.07-.06-.52-.04-1.05-.09-1.65-.2-.42-.07-.69-.14-1.24-.28,0,0-.39-.1-.97-.39-.09-.05-.26-.13-.37-.32-.05-.08-.07-.16-.08-.21h13.1Z"/>
          <rect class="cls-2" x="31.65" y="4.83" width="1.96" height="2.46"/>
          <rect class="cls-2" x="35.65" y="4.83" width="1.96" height="2.46"/>
          <rect class="cls-2" x="32.96" y="8.74" width="2.03" height="1.34"/>
          <rect class="cls-2" x="34.99" y="8.74" width="1.34" height="1.34"/>
        </g>
      </g>
    </g>
  </g>
</svg>